<svg width="303" height="88" xmlns="http://www.w3.org/2000/svg" zoomAndPan="magnify" preserveAspectRatio="xMidYMid meet" version="1.0">
 <defs>
  <g id="svg_1"/>
 </defs>
 <g>
  <title>Layer 1</title>
  <g fill="#ffffff" id="svg_2">
   <g id="svg_3">
    <g id="svg_4">
     <path d="m2.45041,86.30321l0,-50.3125l17.35937,0l0,7.25l0.1875,0c0.13281,-0.25781 0.34766,-0.58203 0.64063,-0.96875c0.28905,-0.39453 0.92577,-1.08203 1.90625,-2.0625c0.98827,-0.97656 2.03515,-1.85938 3.14062,-2.64063c1.11328,-0.78906 2.55078,-1.49219 4.3125,-2.10938c1.76953,-0.625 3.57031,-0.9375 5.40625,-0.9375c1.89453,0 3.75391,0.26172 5.57813,0.78125c1.83202,0.52344 3.17577,1.04297 4.03125,1.5625l1.375,0.79688l-7.26563,14.70313c-2.15625,-1.83203 -5.16405,-2.75 -9.01563,-2.75c-2.09374,0 -3.89844,0.46094 -5.40624,1.375c-1.5,0.91797 -2.5625,2.03125 -3.1875,3.34375c-0.6172,1.30469 -1.0547,2.41406 -1.3125,3.32814c-0.26172,0.91797 -0.39063,1.63672 -0.39063,2.15625l0,26.48438l-17.35937,0l0,-0.00002zm0,0" id="svg_5"/>
    </g>
   </g>
  </g>
  <g fill="#ffffff" id="svg_6">
   <g id="svg_7">
    <g id="svg_8">
     <path d="m45.49544,80.08446c-4.71094,-5.13281 -7.0625,-11.42578 -7.0625,-18.875c0,-7.45703 2.35156,-13.76953 7.0625,-18.9375c4.70703,-5.16406 10.69141,-7.75 17.95313,-7.75c6.66405,0 12.16015,2.08984 16.48437,6.26564l0,-4.79689l17.35938,0l0,50.3125l-17.17188,0l0,-5.6875l-0.1875,0c-4.32422,4.77344 -9.8203,7.15625 -16.48437,7.15625c-7.26173,0 -13.2461,-2.5625 -17.95313,-7.6875zm14.76563,-27.42188c-2.26173,2.21875 -3.39063,5.0625 -3.39063,8.53125c0,3.46875 1.07813,6.29688 3.23438,8.48438c2.16405,2.1875 5.01562,3.28125 8.54687,3.28125c3.39453,0 6.1875,-1.10938 8.375,-3.32813c2.19531,-2.22656 3.29688,-5.03906 3.29688,-8.4375c0,-3.46875 -1.13282,-6.3125 -3.39063,-8.53125c-2.25,-2.21875 -5.01172,-3.32813 -8.28125,-3.32813c-3.33594,0 -6.1328,1.10938 -8.39062,3.32813zm0,0" id="svg_9"/>
    </g>
   </g>
  </g>
  <g fill="#ffffff" id="svg_10">
   <g id="svg_11">
    <g id="svg_12">
     <path d="m157.30978,35.99071l-23.9375,24.03125l26.29688,26.28125l-22.375,0l-20.09375,-20.10938l0,20.10938l-17.35938,0l0,-84.34375l17.35938,0l0,51.57814l17.54689,-17.54689l22.5625,0l-0.00002,0zm0,0" id="svg_13"/>
    </g>
   </g>
  </g>
  <g fill="#ffffff" id="svg_14">
   <g id="svg_15">
    <g id="svg_16">
     <path d="m156.91716,35.99071l0,-18.73439l17.35938,0l0,18.73439l10.59375,0l0,13.23438l-10.59375,0l0,15.98439c0,4.64844 1.30469,6.96875 3.92189,6.96875c0.65625,0 1.34375,-0.12891 2.0625,-0.39063c0.71875,-0.25781 1.27344,-0.51953 1.67188,-0.78127l0.57813,-0.39063l4.3125,14.01563c-3.71875,2.09375 -7.96875,3.14064 -12.75,3.14064c-3.26172,0 -6.07031,-0.57422 -8.42188,-1.71875c-2.35547,-1.14453 -4.14063,-2.67969 -5.35938,-4.60939c-1.21095,-1.92577 -2.07422,-3.95313 -2.59375,-6.07813c-0.52345,-2.125 -0.78125,-4.39453 -0.78125,-6.8125l0,-19.32813l-7.26564,0l0,-13.23438l7.26564,0l-0.00002,0zm0,0" id="svg_17"/>
    </g>
   </g>
  </g>
  <g fill="#ffffff" id="svg_18">
   <g id="svg_19">
    <g id="svg_20">
     <path d="m186.9227,80.08446c-4.71094,-5.13281 -7.0625,-11.42578 -7.0625,-18.875c0,-7.45703 2.35156,-13.76953 7.0625,-18.9375c4.70703,-5.16406 10.69141,-7.75 17.95313,-7.75c6.66406,0 12.16016,2.08984 16.48438,6.26564l0,-4.79689l17.35941,0l0,50.3125l-17.17191,0l0,-5.6875l-0.1875,0c-4.32422,4.77344 -9.82031,7.15625 -16.48438,7.15625c-7.26172,0 -13.24608,-2.5625 -17.95313,-7.6875zm14.76563,-27.42188c-2.26172,2.21875 -3.39063,5.0625 -3.39063,8.53125c0,3.46875 1.07813,6.29688 3.23438,8.48438c2.16406,2.1875 5.01564,3.28125 8.54688,3.28125c3.39453,0 6.1875,-1.10938 8.375,-3.32813c2.19531,-2.22656 3.29691,-5.03906 3.29691,-8.4375c0,-3.46875 -1.13281,-6.3125 -3.39066,-8.53125c-2.25,-2.21875 -5.01172,-3.32813 -8.28125,-3.32813c-3.33592,0 -6.1328,1.10938 -8.39063,3.32813zm0,0" id="svg_21"/>
    </g>
   </g>
  </g>
  <g fill="#ffffff" id="svg_22">
   <g id="svg_23">
    <g id="svg_24">
     <path d="m241.26828,86.30321l0,-50.3125l17.35938,0l0,7.25l0.1875,0c0.13281,-0.25781 0.34766,-0.58203 0.64063,-0.96875c0.28906,-0.39453 0.92578,-1.08203 1.90625,-2.0625c0.98828,-0.97656 2.03516,-1.85938 3.14063,-2.64063c1.11328,-0.78906 2.55078,-1.49219 4.3125,-2.10938c1.76953,-0.625 3.57031,-0.9375 5.40625,-0.9375c1.89453,0 3.75394,0.26172 5.57816,0.78125c1.83203,0.52344 3.17578,1.04297 4.03125,1.5625l1.375,0.79688l-7.26566,14.70313c-2.15625,-1.83203 -5.16403,-2.75 -9.01563,-2.75c-2.09375,0 -3.89844,0.46094 -5.40625,1.375c-1.5,0.91797 -2.5625,2.03125 -3.1875,3.34375c-0.61719,1.30469 -1.05469,2.41406 -1.3125,3.32814c-0.26172,0.91797 -0.39063,1.63672 -0.39063,2.15625l0,26.48438l-17.35938,0l0,-0.00002zm0,0" id="svg_25"/>
    </g>
   </g>
  </g>
  <g fill="#ffffff" id="svg_26">
   <g id="svg_27">
    <g id="svg_28">
     <path d="m292.06332,65.31883c3.13281,0 5.79688,1.09375 7.98438,3.28125c2.19531,2.1875 3.29688,4.85547 3.29688,8c0,3.07422 -1.10156,5.70313 -3.29688,7.89063c-2.1875,2.1875 -4.85156,3.28125 -7.98438,3.28125c-3.07422,0 -5.70313,-1.09375 -7.89063,-3.28125c-2.1875,-2.1875 -3.28125,-4.81641 -3.28125,-7.89063c0,-3.14453 1.09375,-5.8125 3.28125,-8c2.1875,-2.1875 4.81641,-3.28125 7.89063,-3.28125zm0,0" id="svg_29"/>
    </g>
   </g>
  </g>
 </g>
</svg>