<svg xmlns="http://www.w3.org/2000/svg" xmlns:xlink="http://www.w3.org/1999/xlink" width="500" zoomAndPan="magnify" viewBox="0 0 375 374.999991" height="500" preserveAspectRatio="xMidYMid meet" version="1.0"><defs><g/><clipPath id="7b2b3702e1"><path d="M 2 30.933594 L 373 30.933594 L 373 353.433594 L 2 353.433594 Z M 2 30.933594 " clip-rule="nonzero"/></clipPath><clipPath id="0528dc2267"><path d="M 370.472656 199.96875 L 285.777344 345.648438 C 282.972656 350.46875 277.820312 353.433594 272.25 353.433594 L 102.75 353.433594 C 97.179688 353.433594 92.027344 350.46875 89.222656 345.648438 L 4.527344 199.96875 C 1.726562 195.15625 1.726562 189.210938 4.527344 184.398438 L 89.222656 38.71875 C 92.027344 33.898438 97.179688 30.933594 102.75 30.933594 L 272.25 30.933594 C 277.820312 30.933594 282.972656 33.898438 285.777344 38.71875 L 370.472656 184.398438 C 373.273438 189.210938 373.273438 195.15625 370.472656 199.96875 " clip-rule="nonzero"/></clipPath></defs><g clip-path="url(#7b2b3702e1)"><g clip-path="url(#0528dc2267)"><path stroke-linecap="butt" transform="matrix(0.75, 0, 0, 0.750545, 0.0000045, 30.932166)" fill="none" stroke-linejoin="miter" d="M 493.963536 225.218327 L 381.036453 419.316756 C 377.29687 425.739168 370.427078 429.689421 362.999995 429.689421 L 136.999994 429.689421 C 129.572911 429.689421 122.703119 425.739168 118.963536 419.316756 L 6.036452 225.218327 C 2.302077 218.806323 2.302077 210.885 6.036452 204.472997 L 118.963536 10.374567 C 122.703119 3.952155 129.572911 0.00190243 136.999994 0.00190243 L 362.999995 0.00190243 C 370.427078 0.00190243 377.29687 3.952155 381.036453 10.374567 L 493.963536 204.472997 C 497.697911 210.885 497.697911 218.806323 493.963536 225.218327 " stroke="#ffffff" stroke-width="96" stroke-opacity="1" stroke-miterlimit="4"/></g></g><g fill="#ffffff" fill-opacity="1"><g transform="translate(73.510656, 297.120128)"><g><path d="M 18.703125 0 L 18.703125 -212.125 L 89.359375 -212.125 L 89.359375 0 Z M 100.546875 -169.765625 L 100.546875 -212.125 L 181.28125 -212.125 L 223.796875 -169.765625 L 223.796875 -106.140625 L 191.1875 -73.53125 L 188.953125 -78.015625 L 122.609375 -69.21875 L 125.171875 -63.625 L 100.546875 -63.625 L 100.546875 -104.703125 L 153.625 -104.703125 L 153.625 -169.765625 Z M 231 0 L 155.546875 0 L 125.171875 -63.625 L 181.28125 -63.625 L 191.1875 -73.53125 Z M 231 0 "/></g></g></g></svg>